<svg width="70" height="70" viewBox="0 0 70 70" fill="none" xmlns="http://www.w3.org/2000/svg">
<rect width="70" height="70" fill="black" fill-opacity="0"/>
<path d="M70 30.488C70 27.6512 68.8185 25.0329 66.8069 23.2121C67.0808 22.2971 67.2218 21.3398 67.2218 20.3693C67.2218 15.465 63.6165 11.3881 58.9175 10.6468C58.0661 6.07331 54.0266 2.59765 49.1831 2.59765C47.1176 2.59765 45.1559 3.25171 43.5348 4.41532C41.5636 1.71705 38.3918 0 34.9146 0C31.4116 0 28.2967 1.7042 26.3454 4.33193C24.7477 3.22122 22.8321 2.59765 20.817 2.59765C15.9736 2.59765 11.9342 6.07331 11.0828 10.6468C6.3836 11.388 2.77829 15.4652 2.77829 20.3693C2.77829 21.539 3.05323 22.9308 3.50167 24.1828C1.2555 26.3962 0 29.1102 0 31.8551C0 37.283 4.41592 41.6987 9.84371 41.6987C11.7065 41.6987 13.138 41.4961 14.4009 41.3173C15.7845 41.1214 17.0244 40.9473 18.7957 41.0134C20.1875 44.7622 23.8002 47.4409 28.0273 47.4409C30.2065 47.4409 32.6196 47.3899 35.1243 47.1803C35.2077 47.2762 35.2959 47.3691 35.3945 47.4547C40.5863 51.963 45.9546 56.6246 51.3835 68.409C51.8447 69.4101 52.8344 70 53.8688 70C54.2516 70 54.6407 69.9192 55.0111 69.7484C56.3827 69.1167 56.9823 67.4925 56.3505 66.1209C53.8432 60.6781 51.3069 56.5935 48.8085 53.3383C51.9289 54.1092 55.0786 54.5503 57.9003 54.5503C63.2151 54.5503 67.5389 50.2264 67.5389 44.9118C67.5389 42.6116 66.7234 40.497 65.3641 38.8382C68.1463 37.0968 70 34.005 70 30.488ZM60.1563 34.8629C59.997 34.8629 59.838 34.8769 59.6811 34.9046L57.3568 35.3148C55.9606 35.5612 54.9843 36.8336 55.108 38.2459C55.2318 39.6582 56.4143 40.7418 57.832 40.7418C60.169 40.7418 62.0704 42.6126 62.0704 44.9118C62.0704 47.2109 60.1998 49.0817 57.9004 49.0817C53.4734 49.0817 47.9464 47.764 43.4747 45.7829C45.0167 45.3657 46.5358 44.8468 47.9997 44.2C49.381 43.5895 50.0059 41.9752 49.3956 40.5938C48.7851 39.2124 47.1708 38.5873 45.7893 39.1977C40.224 41.6568 33.3736 41.9722 28.0273 41.9722C25.6149 41.9722 23.6523 40.0096 23.6523 37.5972C23.6523 35.1848 25.6149 33.2222 28.0273 33.2222C31.8556 33.2222 34.757 32.6216 36.8969 31.3861C39.3768 29.9546 40.7423 27.645 40.7423 24.8825C40.7423 20.3593 37.0624 16.6795 32.5392 16.6795C31.029 16.6795 29.8048 17.9037 29.8048 19.4139C29.8048 20.9241 31.029 22.1483 32.5392 22.1483C34.047 22.1483 35.2736 23.3749 35.2736 24.8826C35.2736 27.3806 30.7337 27.7537 28.0276 27.7537C23.3069 27.7537 19.3535 31.0944 18.4029 35.5353C16.4325 35.5083 14.9688 35.7139 13.6345 35.9028C12.4451 36.0711 11.3217 36.2303 9.84398 36.2303C7.43156 36.2303 5.46894 34.2677 5.46894 31.8553C5.46894 29.5986 7.48515 27.8584 8.35196 27.215C9.0897 26.6674 9.50314 25.7858 9.45228 24.8683L9.42958 24.4581C9.4047 24.0082 9.26894 23.5712 9.03433 23.1864C8.61501 22.4981 8.24709 21.1818 8.24709 20.3694C8.24709 18.3158 9.66967 16.5891 11.581 16.1206C13.0152 19.8024 16.6133 22.4216 20.8171 22.4216C22.3273 22.4216 23.5515 21.1974 23.5515 19.6872C23.5515 18.177 22.3273 16.9528 20.8171 16.9528C18.3726 16.9528 16.3837 14.9902 16.3837 12.5778C16.3837 12.5547 16.3808 12.5324 16.3803 12.5095C16.3808 12.4865 16.3837 12.4642 16.3837 12.4411C16.3837 10.0287 18.3724 8.06612 20.8171 8.06612C22.208 8.06612 23.4545 8.71991 24.2639 9.84236C24.2383 10.1455 24.2222 10.4512 24.2222 10.7607C24.2222 12.2709 25.4463 13.4951 26.9566 13.4951C28.4668 13.4951 29.691 12.2709 29.691 10.7607C29.691 7.84258 32.0343 5.46847 34.9148 5.46847C37.3778 5.46847 39.5302 7.25018 40.0325 9.70496C40.2902 10.9647 41.3909 11.8745 42.6765 11.8908L42.9179 11.8938C43.9509 11.9007 44.9024 11.3372 45.3789 10.4211C46.1456 8.94645 47.5679 8.06612 49.1835 8.06612C51.6281 8.06612 53.617 10.0287 53.617 12.4411C53.617 14.8535 51.6544 16.8161 49.2419 16.8161C47.7317 16.8161 46.5075 18.0403 46.5075 19.5505C46.5075 21.0607 47.7317 22.2848 49.2419 22.2848C53.3733 22.2848 56.9159 19.7253 58.3737 16.1097C60.308 16.5617 61.7535 18.2992 61.7535 20.3691C61.7535 21.1803 61.5363 21.9652 61.1256 22.6392C60.8644 23.0678 60.7263 23.56 60.7263 24.062V24.1988C60.7263 25.2274 61.3036 26.1692 62.2205 26.6356C63.6677 27.3723 64.5317 28.8123 64.5317 30.4878C64.5313 32.9003 62.5687 34.8629 60.1563 34.8629ZM65.6544 65.6638C66.5385 66.8882 66.2629 68.5973 65.0387 69.4816C64.5546 69.8312 63.9947 69.9995 63.44 69.9995C62.5918 69.9995 61.7556 69.606 61.2211 68.8658C61.1385 68.7514 59.1831 66.0192 57.8359 61.9772C57.3583 60.5446 58.1326 58.9961 59.5653 58.5185C60.9981 58.0412 62.5466 58.8152 63.024 60.2479C64.0922 63.4526 65.639 65.6427 65.6544 65.6638Z" fill="url(#paint0_linear)"/>
<defs>
<linearGradient id="paint0_linear" x1="39.8125" y1="2.04053e-07" x2="23.1875" y2="70" gradientUnits="userSpaceOnUse">
<stop stop-color="#0EE48B"/>
<stop offset="1" stop-color="#00BE9D"/>
</linearGradient>
</defs>
</svg>
