<svg width="69" height="70" viewBox="0 0 69 70" fill="none" xmlns="http://www.w3.org/2000/svg">
<path d="M31.5396 64.4126H8.09336C7.22222 64.4126 6.42844 64.0035 5.91518 63.2905C5.40179 62.5771 5.26045 61.686 5.5272 60.8456C8.19096 52.4584 16.3145 46.6007 25.2821 46.6007C29.4547 46.6007 33.4617 47.8733 36.87 50.2806C38.0907 51.1429 39.7704 50.8398 40.6222 49.6035C41.4735 48.3671 41.1742 46.6659 39.9534 45.8035C38.2662 44.6117 36.4638 43.6395 34.5783 42.8973C37.0869 40.5873 38.7511 37.3527 39.0403 33.7304C42.8441 29.9778 47.8301 27.9215 53.175 27.9215C57.3476 27.9215 61.3546 29.1941 64.7629 31.6014C65.9837 32.4637 67.6634 32.1606 68.5151 30.9243C69.3664 29.6879 69.0671 27.9867 67.8464 27.1243C66.1592 25.9325 64.3567 24.9603 62.4712 24.2181C65.2385 21.6699 66.9783 17.9966 66.9783 13.9193C66.9783 6.24436 60.8126 0 53.234 0C45.6554 0 39.4896 6.24436 39.4896 13.9196C39.4896 17.9803 41.2154 21.6405 43.9632 24.1875C43.5873 24.334 43.214 24.4899 42.8434 24.655C41.1571 25.4066 39.571 26.3292 38.0967 27.4144C36.0626 22.2991 31.1111 18.6791 25.3408 18.6791C17.7621 18.6791 11.5965 24.9234 11.5965 32.5987C11.5965 36.6475 13.3123 40.2981 16.046 42.8441C8.73621 45.6184 2.80917 51.5763 0.39624 59.1743C-0.404022 61.6942 0.0198685 64.3664 1.55937 66.5056C3.09861 68.6446 5.48009 69.8713 8.09336 69.8713H31.5396C33.0281 69.8713 34.2346 68.6494 34.2346 67.142C34.2346 65.6347 33.028 64.4126 31.5396 64.4126ZM53.2342 5.45863C57.8408 5.45863 61.5886 9.25422 61.5886 13.9196C61.5886 18.585 57.8408 22.3806 53.2342 22.3806C48.6275 22.3806 44.8797 18.585 44.8797 13.9196C44.8797 9.25422 48.6275 5.45863 53.2342 5.45863ZM25.3411 24.1377C29.9477 24.1377 33.6955 27.9333 33.6955 32.5987C33.6955 37.2641 29.9477 41.0596 25.3411 41.0596C20.7345 41.0596 16.9867 37.2641 16.9867 32.5987C16.9867 27.9333 20.7345 24.1377 25.3411 24.1377ZM68.4962 48.3894L55.1587 67.2574C55.1294 67.2986 55.0994 67.3389 55.068 67.3784C53.857 68.9043 52.056 69.8544 50.1272 69.9846C49.9747 69.9949 49.8221 70 49.67 70C47.8993 70 46.1785 69.3085 44.8892 68.0656L36.2808 59.6945C35.2073 58.6506 35.1726 56.9227 36.2036 55.8355C37.2341 54.7483 38.9403 54.7129 40.014 55.7572L48.6138 64.12C49.0312 64.5225 49.5181 64.5553 49.7687 64.5379C50.0123 64.5215 50.4669 64.4295 50.8296 64.0035L64.1133 45.2119C64.9796 43.9862 66.663 43.7039 67.8734 44.5815C69.0839 45.459 69.3625 47.1639 68.4962 48.3894Z" fill="url(#paint0_linear)"/>
<defs>
<linearGradient id="paint0_linear" x1="39.2437" y1="2.04053e-07" x2="22.4041" y2="69.891" gradientUnits="userSpaceOnUse">
<stop stop-color="#0EE48B"/>
<stop offset="1" stop-color="#00BE9D"/>
</linearGradient>
</defs>
</svg>
