<svg width="70" height="70" viewBox="0 0 70 70" fill="none" xmlns="http://www.w3.org/2000/svg">
<path d="M67.2656 38.5521C68.7758 38.5521 70 37.3278 70 35.8175V8.20285C70 5.53759 68.6991 3.03025 66.5202 1.49546C64.3412 -0.0391903 61.5423 -0.419161 59.0332 0.478467C58.956 0.506086 58.88 0.537261 58.8055 0.571716L36.8996 10.7157C32.0768 12.9487 26.937 14.0968 21.6228 14.1277L10.9288 14.1901C4.90191 14.195 0 19.1 0 25.1286V32.2385C0 37.0892 3.20551 41.2651 7.65625 42.6703V61.6882C7.65625 63.9135 8.57117 66.0876 10.1664 67.6526C11.713 69.1701 13.7296 70 15.861 70C15.9132 70 15.9659 69.9995 16.0182 69.9984C18.1763 69.9572 20.1984 69.0857 21.712 67.5445C23.2278 66.0011 24.0625 63.9597 24.0625 61.7961V43.1674C28.6777 43.5153 33.24 44.7368 37.4001 46.7519L58.737 57.0871C58.8211 57.1279 58.9072 57.1641 58.995 57.1961C61.5073 58.1095 64.3144 57.7387 66.5036 56.2048C68.6928 54.6709 70 52.1591 70 49.4857C70 47.9754 68.7758 46.7511 67.2656 46.7511C65.7554 46.7511 64.5312 47.9754 64.5312 49.4857C64.5312 50.3901 64.1065 51.2064 63.3657 51.7254C62.657 52.2219 61.7914 52.3536 60.9737 52.0935L39.7839 41.8297C34.8852 39.4569 29.5002 38.0421 24.0625 37.6851V19.5158C29.3103 19.1912 34.3909 17.9043 39.1973 15.6789L60.973 5.59529C61.7937 5.33482 62.6622 5.46772 63.3713 5.96733C64.1085 6.48649 64.5312 7.3014 64.5312 8.20313V35.8178C64.5312 37.3278 65.7554 38.5521 67.2656 38.5521ZM18.5938 61.7961C18.5938 63.2754 17.3916 64.5018 15.9137 64.5301C15.2065 64.5434 14.5236 64.2661 13.9962 63.7485C13.4426 63.2052 13.125 62.4543 13.125 61.6881V40.4218C13.125 38.9821 12.009 37.789 10.5726 37.6932C7.71066 37.5023 5.46875 35.1063 5.46875 32.2385V25.1286C5.46875 22.1129 7.92203 19.6594 10.9375 19.6594H10.9535L18.5938 19.6148V61.7961Z" fill="url(#paint0_linear)"/>
<defs>
<linearGradient id="paint0_linear" x1="39.8125" y1="2.04053e-07" x2="23.1875" y2="70" gradientUnits="userSpaceOnUse">
<stop stop-color="#0EE48B"/>
<stop offset="1" stop-color="#00BE9D"/>
</linearGradient>
</defs>
</svg>
