<svg width="63" height="70" viewBox="0 0 63 70" fill="none" xmlns="http://www.w3.org/2000/svg">
<path d="M28.7996 53.8672V42.6562H26.7425C25.2276 42.6562 23.9997 41.4321 23.9997 39.9219C23.9997 38.4117 25.2276 37.1875 26.7425 37.1875H31.5424C33.0572 37.1875 34.2852 38.4117 34.2852 39.9219V53.8672C34.2852 55.3774 33.0572 56.6016 31.5424 56.6016C30.0275 56.6016 28.7996 55.3774 28.7996 53.8672ZM49.1716 31.2888C49.1264 31.38 49.0769 31.4676 49.0231 31.5515C52.57 35.6303 54.7189 40.9486 54.7189 46.7578C54.7189 49.8138 54.1325 52.7855 52.9758 55.5904C52.3999 56.9871 50.797 57.654 49.396 57.0798C47.995 56.5056 47.3261 54.9078 47.902 53.511C48.7853 51.3691 49.2332 49.0969 49.2332 46.7577C49.2332 36.9574 41.2356 28.9842 31.405 28.9842C21.5743 28.9842 13.5767 36.9574 13.5767 46.7577C13.5767 56.5579 21.5743 64.5311 31.405 64.5311C34.6851 64.5311 37.8901 63.6364 40.6736 61.9438C41.9667 61.1573 43.6545 61.565 44.4434 62.8544C45.2323 64.1437 44.8235 65.8262 43.5302 66.6127C39.8861 68.8287 35.6933 70 31.4052 70C18.55 70 8.09139 59.5736 8.09139 46.7578C8.09139 40.8875 10.2858 35.5186 13.8997 31.4233C13.8749 31.3794 13.851 31.3346 13.8284 31.2888L0.283583 3.94502C-0.136341 3.0975 -0.0872448 2.09385 0.41318 1.29104C0.913742 0.488223 1.79473 0 2.74292 0H20.4865C21.5303 0 22.4837 0.590625 22.9459 1.52373L28.1047 11.9383C28.7754 13.2923 28.2181 14.932 26.8599 15.6007C25.5015 16.2693 23.8569 15.7138 23.1861 14.3597L18.782 5.46875H7.15637L18.1443 27.651C21.3175 25.4554 25.0613 24.0246 29.1048 23.628L40.0543 1.52373C40.5164 0.590625 41.4697 0 42.5136 0H60.2572C61.2054 0 62.0864 0.488223 62.5868 1.29104C63.0872 2.09385 63.1363 3.0975 62.7164 3.94502L49.1716 31.2888ZM35.1316 23.8123C38.6883 24.3843 41.9783 25.7614 44.807 27.7493L55.8436 5.46875H44.2181L35.1316 23.8123Z" fill="url(#paint0_linear)"/>
<defs>
<linearGradient id="paint0_linear" x1="35.8312" y1="2.04053e-07" x2="17.5875" y2="69.1341" gradientUnits="userSpaceOnUse">
<stop stop-color="#0EE48B"/>
<stop offset="1" stop-color="#00BE9D"/>
</linearGradient>
</defs>
</svg>
