<svg width="70" height="70" viewBox="0 0 70 70" fill="none" xmlns="http://www.w3.org/2000/svg">
<path d="M68.1322 66.9417C66.5516 68.8853 64.208 70 61.7021 70H49.3554C47.8452 70 46.621 68.7758 46.621 67.2656C46.621 65.7554 47.8452 64.5312 49.3554 64.5312H61.7021C62.8694 64.5312 63.5735 63.8797 63.8894 63.4914C64.4348 62.8208 64.6459 61.9478 64.4686 61.0963C64.1607 59.6179 65.1096 58.1699 66.5883 57.862C68.0665 57.5544 69.5147 58.5032 69.8225 59.9815C70.3368 62.4516 69.7206 64.9884 68.1322 66.9417ZM43.0024 61.0723C43.2025 61.9831 42.9247 62.933 42.2653 63.5925L36.7968 69.0622C36.284 69.5751 35.5885 69.8633 34.8632 69.8633C34.1378 69.8633 33.4422 69.5752 32.9295 69.0622L27.4605 63.5925C26.8011 62.9331 26.5232 61.9831 26.7233 61.0721L31.9433 37.3228C19.0635 38.6467 8.20854 48.2353 5.53104 61.0962C5.35372 61.9478 5.56481 62.8206 6.11018 63.4914C6.42614 63.8798 7.13024 64.5312 8.29755 64.5312H20.2343C21.7445 64.5312 22.9687 65.7554 22.9687 67.2656C22.9687 68.7758 21.7445 70 20.2343 70H8.29782C5.7919 70 3.44813 68.8853 1.86766 66.9417C0.279264 64.9884 -0.336928 62.4516 0.177408 59.9815C1.81844 52.0989 6.16569 44.9252 12.4181 39.7823C15.8282 36.9775 19.7246 34.8517 23.8769 33.4847C19.3446 30.0907 16.4062 24.679 16.4062 18.5938C16.4062 8.34107 24.7474 0 34.9999 0C45.2525 0 53.5937 8.34107 53.5937 18.5938C53.5937 24.675 50.659 30.0836 46.1316 33.4782C53.5605 35.923 60.0761 40.788 64.5629 47.4798C65.4039 48.7341 65.0689 50.4327 63.8145 51.2738C62.5604 52.1149 60.8615 51.7796 60.0207 50.5254C54.9312 42.9349 46.7595 38.1201 37.7762 37.2926L43.0024 61.0723ZM34.3602 31.703C34.5734 31.6992 34.7865 31.6961 34.9999 31.6961C35.2175 31.6961 35.4346 31.6987 35.6514 31.7026C42.5872 31.3618 48.1249 25.6125 48.1249 18.5938C48.1249 11.3565 42.2372 5.46875 34.9999 5.46875C27.7627 5.46875 21.8749 11.3565 21.8749 18.5938C21.8749 25.6164 27.419 31.3682 34.3602 31.703ZM37.3398 60.7843L34.8631 49.5152L32.3862 60.7842L34.8631 63.2615L37.3398 60.7843Z" fill="url(#paint0_linear)"/>
<defs>
<linearGradient id="paint0_linear" x1="39.8124" y1="2.04053e-07" x2="23.1874" y2="70" gradientUnits="userSpaceOnUse">
<stop stop-color="#0EE48B"/>
<stop offset="1" stop-color="#00BE9D"/>
</linearGradient>
</defs>
</svg>
