<svg width="93" height="30" viewBox="0 0 93 30" fill="none" xmlns="http://www.w3.org/2000/svg">
<rect width="93.0002" height="30" fill="black" fill-opacity="0"/>
<path fill-rule="evenodd" clip-rule="evenodd" d="M27.7865 0.574272C25.3028 -0.711484 22.2264 0.236198 20.924 2.70546C20.924 2.70546 18.5383 7.22958 17.0542 10.033C16.134 11.7738 15.668 13.7689 15.4424 15.0307H15.0909C14.8755 13.7973 14.4198 11.8525 13.4615 10.0364C11.905 7.08769 9.59609 2.70546 9.59609 2.70546C8.29066 0.236198 5.21676 -0.713441 2.73072 0.574272C0.242238 1.8659 -0.722027 4.9115 0.579974 7.37489L10.7488 26.6505C11.6314 28.3154 13.3694 29.3565 15.2598 29.3565C17.1551 29.3565 18.8877 28.3154 19.7644 26.6505L29.9396 7.37684C31.2396 4.9115 30.2798 1.86541 27.7865 0.574272Z" fill="url(#paint0_linear)"/>
<path fill-rule="evenodd" clip-rule="evenodd" d="M90.268 0.574272C87.7805 -0.711484 84.7086 0.236198 83.407 2.70546C83.407 2.70546 81.017 7.22958 79.5422 10.033C78.621 11.7738 78.1497 13.7689 77.9245 15.0307H77.574C77.3586 13.7973 76.9044 11.8525 75.9407 10.0364C74.39 7.08769 72.0757 2.70546 72.0757 2.70546C70.7718 0.236198 67.7018 -0.713441 65.2114 0.574272C62.7209 1.8659 61.7591 4.9115 63.0606 7.37489L73.2323 26.6505C74.1139 28.3154 75.8466 29.3565 77.7409 29.3565C79.6312 29.3565 81.3713 28.3154 82.249 26.6505L92.4188 7.37684C93.7222 4.9115 92.7609 1.86541 90.268 0.574272Z" fill="url(#paint1_linear)"/>
<path fill-rule="evenodd" clip-rule="evenodd" d="M47.163 30C38.887 30 32.1533 23.2708 32.1533 14.999C32.1533 6.72869 38.887 0 47.1635 0C51.42 0 55.2453 1.83078 57.7934 4.40474C59.5379 6.09707 59.5844 9.13533 57.7465 10.9725C56.8644 11.8536 55.6936 12.3394 54.4474 12.3394C53.279 12.3394 52.1518 12.1545 51.163 10.9896C50.0954 9.75081 48.6628 9.00421 47.163 9.00421C44.189 9.00763 41.7695 11.6966 41.7695 14.999C41.7695 18.3025 44.189 20.9899 47.163 20.9899C48.72 20.9899 50.1043 20.2815 51.1679 18.9977C52.0852 17.9375 53.2585 17.5984 54.5046 17.5984C55.7514 17.5984 56.9222 18.0838 57.8022 18.9649C59.6054 20.7693 59.6343 23.7464 57.7944 25.5855C54.953 28.4256 51.1826 30 47.163 30Z" fill="url(#paint2_linear)"/>
<defs>
<linearGradient id="paint0_linear" x1="30.5509" y1="-4.8153e-07" x2="11.93" y2="34.7022" gradientUnits="userSpaceOnUse">
<stop stop-color="#03BE70"/>
<stop offset="1" stop-color="#03BE70" stop-opacity="0.86"/>
</linearGradient>
<linearGradient id="paint1_linear" x1="93.032" y1="-4.8153e-07" x2="74.4113" y2="34.7026" gradientUnits="userSpaceOnUse">
<stop stop-color="#03BE70"/>
<stop offset="1" stop-color="#03BE70" stop-opacity="0.86"/>
</linearGradient>
<linearGradient id="paint2_linear" x1="59.1926" y1="-4.92085e-07" x2="38.7441" y2="33.0045" gradientUnits="userSpaceOnUse">
<stop stop-color="#03BE70"/>
<stop offset="1" stop-color="#03BE70" stop-opacity="0.86"/>
</linearGradient>
</defs>
</svg>
