<svg width="90" height="80" viewBox="0 0 90 80" fill="none" xmlns="http://www.w3.org/2000/svg">
<rect width="90" height="80" fill="black" fill-opacity="0"/>
<path opacity="0.1" d="M0.0580229 21.6582C-0.674233 13.0803 5.6078 5.4976 14.1806 4.61158L57.986 0.0841706C64.2594 -0.564205 70.3183 2.57469 73.4016 8.07044L87.9771 34.0501C92.6143 42.3155 88.9703 52.7709 80.1969 56.3726L25.5621 78.8022C15.6867 82.8565 4.71116 76.1665 3.80402 65.54L0.0580229 21.6582Z" fill="url(#paint0_linear)"/>
<rect width="69.9999" height="70" fill="black" fill-opacity="0" transform="translate(10)"/>
<path d="M78.1322 66.9417C76.5516 68.8853 74.208 70 71.7021 70H59.3554C57.8452 70 56.621 68.7758 56.621 67.2656C56.621 65.7554 57.8452 64.5312 59.3554 64.5312H71.7021C72.8694 64.5312 73.5735 63.8797 73.8894 63.4914C74.4348 62.8208 74.6459 61.9478 74.4686 61.0963C74.1607 59.6179 75.1096 58.1699 76.5883 57.862C78.0665 57.5544 79.5147 58.5032 79.8225 59.9815C80.3368 62.4516 79.7206 64.9884 78.1322 66.9417ZM53.0024 61.0723C53.2025 61.9831 52.9247 62.933 52.2653 63.5925L46.7968 69.0622C46.284 69.5751 45.5885 69.8633 44.8632 69.8633C44.1378 69.8633 43.4422 69.5752 42.9295 69.0622L37.4605 63.5925C36.8011 62.9331 36.5232 61.9831 36.7233 61.0721L41.9433 37.3228C29.0635 38.6467 18.2085 48.2353 15.531 61.0962C15.3537 61.9478 15.5648 62.8206 16.1102 63.4914C16.4261 63.8798 17.1302 64.5312 18.2975 64.5312H30.2343C31.7445 64.5312 32.9687 65.7554 32.9687 67.2656C32.9687 68.7758 31.7445 70 30.2343 70H18.2978C15.7919 70 13.4481 68.8853 11.8677 66.9417C10.2793 64.9884 9.66307 62.4516 10.1774 59.9815C11.8184 52.0989 16.1657 44.9252 22.4181 39.7823C25.8282 36.9775 29.7246 34.8517 33.8769 33.4847C29.3446 30.0907 26.4062 24.679 26.4062 18.5938C26.4062 8.34107 34.7474 0 44.9999 0C55.2525 0 63.5937 8.34107 63.5937 18.5938C63.5937 24.675 60.659 30.0836 56.1316 33.4782C63.5605 35.923 70.0761 40.788 74.5629 47.4798C75.4039 48.7341 75.0689 50.4327 73.8145 51.2738C72.5604 52.1149 70.8615 51.7796 70.0207 50.5254C64.9312 42.9349 56.7595 38.1201 47.7762 37.2926L53.0024 61.0723ZM44.3602 31.703C44.5734 31.6992 44.7865 31.6961 44.9999 31.6961C45.2175 31.6961 45.4346 31.6987 45.6514 31.7026C52.5872 31.3618 58.1249 25.6125 58.1249 18.5938C58.1249 11.3565 52.2372 5.46875 44.9999 5.46875C37.7627 5.46875 31.8749 11.3565 31.8749 18.5938C31.8749 25.6164 37.419 31.3682 44.3602 31.703ZM47.3398 60.7843L44.8631 49.5152L42.3862 60.7842L44.8631 63.2615L47.3398 60.7843Z" fill="url(#paint1_linear)"/>
<defs>
<linearGradient id="paint0_linear" x1="14256.3" y1="3681.77" x2="14294" y2="3731.36" gradientUnits="userSpaceOnUse">
<stop stop-color="#00C2FF"/>
<stop offset="1" stop-color="#08F7CC"/>
</linearGradient>
<linearGradient id="paint1_linear" x1="49.8124" y1="2.04053e-07" x2="33.1874" y2="70" gradientUnits="userSpaceOnUse">
<stop stop-color="#0EE48B"/>
<stop offset="1" stop-color="#00BE9D"/>
</linearGradient>
</defs>
</svg>
