<svg width="90" height="80" viewBox="0 0 90 80" fill="none" xmlns="http://www.w3.org/2000/svg">
<rect width="90" height="80" fill="black" fill-opacity="0"/>
<rect width="90" height="80" fill="black" fill-opacity="0"/>
<path opacity="0.1" d="M0.0580229 21.6582C-0.674233 13.0803 5.6078 5.4976 14.1806 4.61158L57.986 0.0841706C64.2594 -0.564205 70.3183 2.57469 73.4016 8.07044L87.9771 34.0501C92.6143 42.3155 88.9703 52.7709 80.1969 56.3726L25.5621 78.8022C15.6867 82.8565 4.71116 76.1665 3.80402 65.54L0.0580229 21.6582Z" fill="url(#paint0_linear)"/>
<rect width="63" height="70" fill="black" fill-opacity="0" transform="translate(13)"/>
<path d="M41.7996 53.8672V42.6562H39.7425C38.2276 42.6562 36.9997 41.4321 36.9997 39.9219C36.9997 38.4117 38.2276 37.1875 39.7425 37.1875H44.5424C46.0572 37.1875 47.2852 38.4117 47.2852 39.9219V53.8672C47.2852 55.3774 46.0572 56.6016 44.5424 56.6016C43.0275 56.6016 41.7996 55.3774 41.7996 53.8672ZM62.1716 31.2888C62.1264 31.38 62.0769 31.4676 62.0231 31.5515C65.57 35.6303 67.7189 40.9486 67.7189 46.7578C67.7189 49.8137 67.1325 52.7855 65.9758 55.5904C65.3999 56.9871 63.797 57.654 62.396 57.0798C60.995 56.5056 60.3261 54.9078 60.902 53.511C61.7853 51.3691 62.2332 49.0969 62.2332 46.7577C62.2332 36.9574 54.2356 28.9842 44.405 28.9842C34.5743 28.9842 26.5767 36.9574 26.5767 46.7577C26.5767 56.5579 34.5743 64.5311 44.405 64.5311C47.6851 64.5311 50.8901 63.6364 53.6736 61.9438C54.9667 61.1573 56.6545 61.565 57.4434 62.8544C58.2323 64.1437 57.8235 65.8262 56.5302 66.6127C52.8861 68.8287 48.6933 70 44.4052 70C31.55 70 21.0914 59.5736 21.0914 46.7578C21.0914 40.8875 23.2858 35.5186 26.8997 31.4233C26.8749 31.3794 26.851 31.3346 26.8284 31.2888L13.2836 3.94502C12.8637 3.0975 12.9128 2.09385 13.4132 1.29104C13.9137 0.488223 14.7947 0 15.7429 0H33.4865C34.5303 0 35.4837 0.590625 35.9459 1.52373L41.1047 11.9383C41.7754 13.2923 41.2181 14.932 39.8599 15.6007C38.5015 16.2693 36.8569 15.7138 36.1861 14.3597L31.782 5.46875H20.1564L31.1443 27.651C34.3175 25.4554 38.0613 24.0246 42.1048 23.628L53.0543 1.52373C53.5164 0.590625 54.4697 0 55.5136 0H73.2572C74.2054 0 75.0864 0.488223 75.5868 1.29104C76.0872 2.09385 76.1363 3.0975 75.7164 3.94502L62.1716 31.2888ZM48.1316 23.8123C51.6883 24.3843 54.9783 25.7614 57.807 27.7493L68.8436 5.46875H57.2181L48.1316 23.8123Z" fill="url(#paint1_linear)"/>
<defs>
<linearGradient id="paint0_linear" x1="14256.3" y1="3681.77" x2="14294" y2="3731.36" gradientUnits="userSpaceOnUse">
<stop stop-color="#00C2FF"/>
<stop offset="1" stop-color="#08F7CC"/>
</linearGradient>
<linearGradient id="paint1_linear" x1="48.8312" y1="2.04053e-07" x2="30.5875" y2="69.1341" gradientUnits="userSpaceOnUse">
<stop stop-color="#0EE48B"/>
<stop offset="1" stop-color="#00BE9D"/>
</linearGradient>
</defs>
</svg>
