<svg width="1499" height="1111" viewBox="0 0 1499 1111" fill="none" xmlns="http://www.w3.org/2000/svg">
<rect width="1574.4" height="1109.91" fill="black" fill-opacity="0" transform="translate(-76.1367 0.870605)"/>
<path opacity="0.5" fill-rule="evenodd" clip-rule="evenodd" d="M1072.63 137.059L209.412 128.857C148.837 128.282 98.4 173.382 92.5917 233.317L27.4414 905.591C19.6813 985.667 93.323 1051.01 172.122 1033.96L1301.54 789.649C1375.16 773.723 1413.9 693.766 1381.13 625.359L1180.09 205.598C1160.26 164.191 1118.4 137.494 1072.63 137.059ZM209.397 126.862C147.795 126.276 96.5035 172.141 90.5967 233.092L25.4464 905.366C17.5547 986.799 92.4446 1053.25 172.579 1035.91L1301.99 791.6C1376.87 775.404 1416.26 694.092 1382.94 624.525L1181.89 204.764C1161.73 162.655 1119.16 135.506 1072.61 135.064L209.397 126.862Z" fill="url(#paint0_linear)"/>
<path d="M164.564 292.365C170.485 231.409 221.785 185.531 283.384 186.104L1146.54 194.128C1193.08 194.56 1235.64 221.702 1255.8 263.809L1456.73 683.547C1490.03 753.111 1450.62 834.436 1375.75 850.649L246.351 1095.2C166.217 1112.56 91.3468 1046.12 99.2575 964.683L164.564 292.365Z" fill="url(#paint1_linear)"/>
<rect width="45" height="45" fill="black" fill-opacity="0" transform="translate(758 110)"/>
<g opacity="0.5" filter="url(#filter0_f)">
<circle cx="780.5" cy="132.5" r="11.5" fill="url(#paint2_linear)"/>
</g>
<circle cx="780.5" cy="132.5" r="10.5" fill="url(#paint3_linear)"/>
<circle cx="780.5" cy="132.5" r="21" stroke="url(#paint4_linear)" stroke-width="3"/>
<defs>
<filter id="filter0_f" x="765" y="117" width="31" height="31" filterUnits="userSpaceOnUse" color-interpolation-filters="sRGB">
<feFlood flood-opacity="0" result="BackgroundImageFix"/>
<feBlend mode="normal" in="SourceGraphic" in2="BackgroundImageFix" result="shape"/>
<feGaussianBlur stdDeviation="2" result="effect1_foregroundBlur"/>
</filter>
<linearGradient id="paint0_linear" x1="120.215" y1="495.209" x2="1095.16" y2="704.551" gradientUnits="userSpaceOnUse">
<stop stop-color="#DEE8EA"/>
<stop offset="1" stop-color="white" stop-opacity="0"/>
</linearGradient>
<linearGradient id="paint1_linear" x1="504.5" y1="374.5" x2="1579.1" y2="832.762" gradientUnits="userSpaceOnUse">
<stop stop-color="#1370FC" stop-opacity="0.04"/>
<stop offset="1" stop-color="#C7D4E8" stop-opacity="0"/>
</linearGradient>
<linearGradient id="paint2_linear" x1="777.733" y1="121.168" x2="787.938" y2="138.639" gradientUnits="userSpaceOnUse">
<stop stop-color="#80FFCA"/>
<stop offset="1" stop-color="#B0FFF1"/>
</linearGradient>
<linearGradient id="paint3_linear" x1="777.974" y1="122.153" x2="787.292" y2="138.105" gradientUnits="userSpaceOnUse">
<stop stop-color="#80FFCA"/>
<stop offset="1" stop-color="#B0FFF1"/>
</linearGradient>
<linearGradient id="paint4_linear" x1="775.086" y1="110.328" x2="795.053" y2="144.512" gradientUnits="userSpaceOnUse">
<stop stop-color="#80FFCA"/>
<stop offset="1" stop-color="#B0FFF1"/>
</linearGradient>
</defs>
</svg>
