<svg width="90" height="80" viewBox="0 0 90 80" fill="none" xmlns="http://www.w3.org/2000/svg">
<rect width="90" height="80" fill="black" fill-opacity="0"/>
<path opacity="0.1" d="M0.0580229 21.6582C-0.674233 13.0803 5.6078 5.4976 14.1806 4.61158L57.986 0.0841706C64.2594 -0.564205 70.3183 2.57469 73.4016 8.07044L87.9771 34.0501C92.6143 42.3155 88.9703 52.7709 80.1969 56.3726L25.5621 78.8022C15.6867 82.8565 4.71116 76.1665 3.80402 65.54L0.0580229 21.6582Z" fill="url(#paint0_linear)"/>
<rect width="69" height="70" fill="black" fill-opacity="0" transform="translate(11)"/>
<path d="M42.5396 64.4126H19.0934C18.2222 64.4126 17.4284 64.0035 16.9152 63.2905C16.4018 62.5771 16.2604 61.686 16.5272 60.8456C19.191 52.4584 27.3145 46.6007 36.2821 46.6007C40.4547 46.6007 44.4617 47.8733 47.87 50.2806C49.0907 51.1429 50.7704 50.8398 51.6222 49.6035C52.4735 48.3671 52.1742 46.6659 50.9534 45.8035C49.2662 44.6117 47.4638 43.6395 45.5783 42.8973C48.0869 40.5873 49.7511 37.3527 50.0403 33.7304C53.8441 29.9778 58.8301 27.9215 64.175 27.9215C68.3476 27.9215 72.3546 29.1941 75.7629 31.6014C76.9837 32.4637 78.6634 32.1606 79.5151 30.9243C80.3664 29.6879 80.0671 27.9867 78.8464 27.1243C77.1592 25.9325 75.3567 24.9603 73.4712 24.2181C76.2385 21.6699 77.9783 17.9966 77.9783 13.9193C77.9783 6.24436 71.8126 0 64.234 0C56.6554 0 50.4896 6.24436 50.4896 13.9196C50.4896 17.9803 52.2154 21.6405 54.9632 24.1875C54.5873 24.334 54.214 24.4899 53.8434 24.655C52.1571 25.4066 50.571 26.3292 49.0967 27.4144C47.0626 22.2991 42.1111 18.6791 36.3408 18.6791C28.7621 18.6791 22.5965 24.9234 22.5965 32.5987C22.5965 36.6475 24.3123 40.2981 27.046 42.8441C19.7362 45.6184 13.8092 51.5763 11.3962 59.1743C10.596 61.6942 11.0199 64.3664 12.5594 66.5056C14.0986 68.6446 16.4801 69.8713 19.0934 69.8713H42.5396C44.0281 69.8713 45.2346 68.6494 45.2346 67.142C45.2346 65.6347 44.028 64.4126 42.5396 64.4126ZM64.2342 5.45863C68.8408 5.45863 72.5886 9.25422 72.5886 13.9196C72.5886 18.585 68.8408 22.3806 64.2342 22.3806C59.6275 22.3806 55.8797 18.585 55.8797 13.9196C55.8797 9.25422 59.6275 5.45863 64.2342 5.45863ZM36.3411 24.1377C40.9477 24.1377 44.6955 27.9333 44.6955 32.5987C44.6955 37.2641 40.9477 41.0596 36.3411 41.0596C31.7345 41.0596 27.9867 37.2641 27.9867 32.5987C27.9867 27.9333 31.7345 24.1377 36.3411 24.1377ZM79.4962 48.3894L66.1587 67.2574C66.1294 67.2986 66.0994 67.3389 66.068 67.3784C64.857 68.9043 63.056 69.8544 61.1272 69.9846C60.9747 69.9949 60.8221 70 60.67 70C58.8993 70 57.1785 69.3085 55.8892 68.0656L47.2808 59.6945C46.2073 58.6506 46.1726 56.9227 47.2036 55.8355C48.2341 54.7483 49.9403 54.7129 51.014 55.7572L59.6138 64.12C60.0312 64.5225 60.5181 64.5553 60.7687 64.5379C61.0123 64.5215 61.4669 64.4295 61.8296 64.0035L75.1133 45.2119C75.9796 43.9862 77.663 43.7039 78.8734 44.5815C80.0839 45.459 80.3625 47.1639 79.4962 48.3894Z" fill="url(#paint1_linear)"/>
<defs>
<linearGradient id="paint0_linear" x1="14256.3" y1="3681.77" x2="14294" y2="3731.36" gradientUnits="userSpaceOnUse">
<stop stop-color="#00C2FF"/>
<stop offset="1" stop-color="#08F7CC"/>
</linearGradient>
<linearGradient id="paint1_linear" x1="50.2437" y1="2.04053e-07" x2="33.4041" y2="69.891" gradientUnits="userSpaceOnUse">
<stop stop-color="#0EE48B"/>
<stop offset="1" stop-color="#00BE9D"/>
</linearGradient>
</defs>
</svg>
