<svg width="70" height="70" viewBox="0 0 70 70" fill="none" xmlns="http://www.w3.org/2000/svg">
<rect width="70" height="70" fill="black" fill-opacity="0"/>
<path d="M37.5284 20.723C34.3301 23.9215 34.3301 29.1256 37.5284 32.3241C39.1276 33.9231 41.2283 34.7228 43.3289 34.7228C45.4294 34.7228 47.5302 33.9231 49.1294 32.3239C52.3278 29.1256 52.3278 23.9215 49.1294 20.723C45.931 17.5248 40.7267 17.5246 37.5284 20.723ZM45.2623 28.4569C44.1962 29.5231 42.4614 29.5231 41.3953 28.4569C40.3291 27.3908 40.3291 25.6562 41.3953 24.5901C41.9283 24.0569 42.6284 23.7904 43.3289 23.7904C44.029 23.7904 44.7293 24.0569 45.2623 24.5899C46.3285 25.6562 46.3285 27.3908 45.2623 28.4569ZM52.0704 17.9297C51.0026 16.8618 51.0026 15.1306 52.0704 14.0628C53.1381 12.995 54.8695 12.9949 55.9373 14.0628C57.0051 15.1307 57.0051 16.862 55.9373 17.9297C54.8695 18.9975 53.1383 18.9975 52.0704 17.9297ZM35.8047 16.285C43.9099 8.35209 55.6648 6.11087 61.9524 5.48101C62.9184 5.38394 63.5547 5.87285 63.8477 6.17281C64.3608 6.69808 64.6029 7.42186 64.5117 8.15864C63.9829 12.4364 62.7248 18.815 59.7338 24.9085C59.0684 26.2641 59.628 27.9025 60.9836 28.568C62.3394 29.2332 63.9776 28.6736 64.643 27.3182C67.9691 20.5421 69.3589 13.5239 69.9392 8.82951C70.2353 6.43339 69.4407 4.072 67.7591 2.35099C66.0921 0.644615 63.7762 -0.198524 61.4073 0.0396387C58.0048 0.38034 52.8127 1.18711 47.3998 3.09501C41.2349 5.26814 36.0414 8.39598 31.9639 12.3921C31.9548 12.4009 31.9458 12.4099 31.9369 12.4189L31.3819 12.9782L1.89239 22.5233C0.986627 22.8166 0.298386 23.5599 0.0758086 24.4858C-0.146769 25.4116 0.128308 26.3864 0.80192 27.0593L14.1495 40.3936C11.3481 40.8058 8.6512 42.0871 6.4998 44.2386C4.303 46.4354 2.60838 50.8774 1.31899 57.8183C0.423483 62.6395 0.0686992 66.863 0.0540704 67.0405C-0.0121013 67.8412 0.277468 68.6308 0.84567 69.1991C1.36055 69.714 2.05686 69.9999 2.779 69.9999C2.85379 69.9999 2.92912 69.9969 3.00432 69.9906C3.18178 69.9761 7.40528 69.6213 12.2265 68.7257C19.1676 67.4363 23.6094 65.7418 25.8062 63.5449C27.961 61.3901 29.2433 58.6881 29.6533 55.882L42.9847 69.2001C43.5037 69.7185 44.2014 70.0001 44.9174 70C45.1371 70 45.3587 69.9736 45.5771 69.9192C46.5076 69.6879 47.2488 68.9861 47.5308 68.0698L56.6173 38.5387C57.0614 37.0953 56.2513 35.5653 54.808 35.1212C54.7622 35.1071 54.7161 35.0978 54.6702 35.0862C53.6676 34.657 52.4626 34.8528 51.6494 35.6752L34.5124 53.0058L35.8047 16.285ZM34.5124 53.0058L16.8615 35.3726L35.8047 16.2849L34.5124 53.0058ZM18.9661 48.0961C19.3634 47.7038 19.889 47.4879 20.4479 47.4879C20.8574 47.4879 21.2484 47.6052 21.5849 47.8215L22.2225 48.4585C22.4395 48.7952 22.5571 49.1867 22.5571 49.597C22.5571 50.1553 22.3416 50.6804 21.9501 51.0776C21.4542 51.4896 19.7273 51.9783 17.6802 52.3407C18.0547 50.3033 18.5525 48.5871 18.9661 48.0961ZM5.85202 64.1926C6.6454 57.8836 8.29997 50.1722 10.3667 48.1056C11.354 47.1183 12.5496 46.416 13.8537 46.0362C13.3435 47.0829 12.8151 48.6403 12.3615 51.0416C11.9443 53.2496 11.7748 55.1921 11.7678 55.2738C11.6991 56.0745 11.986 56.865 12.5525 57.4351C13.0677 57.9536 13.7668 58.2421 14.4919 58.2421C14.5639 58.2421 14.6362 58.2393 14.7085 58.2335C14.7905 58.2269 16.7445 58.0692 18.9641 57.6638C21.3846 57.2218 22.9521 56.698 24.0044 56.189C23.6328 57.4672 22.9448 58.672 21.939 59.6778C19.8725 61.7447 12.1608 63.3993 5.85202 64.1926ZM48.3598 46.7798L43.6388 62.1231L38.3816 56.8711L48.3598 46.7798ZM7.82952 26.3496L22.9775 21.4465L12.9927 31.5076L7.82952 26.3496Z" fill="url(#paint0_linear)"/>
<defs>
<linearGradient id="paint0_linear" x1="39.8125" y1="2.04053e-07" x2="23.1875" y2="70" gradientUnits="userSpaceOnUse">
<stop stop-color="#0EE48B"/>
<stop offset="1" stop-color="#00BE9D"/>
</linearGradient>
</defs>
</svg>
