<svg width="90" height="80" viewBox="0 0 90 80" fill="none" xmlns="http://www.w3.org/2000/svg">
<rect width="90" height="80" fill="black" fill-opacity="0"/>
<path opacity="0.1" d="M0.0580229 21.6582C-0.674233 13.0803 5.6078 5.4976 14.1806 4.61158L57.986 0.0841706C64.2594 -0.564205 70.3183 2.57469 73.4016 8.07044L87.9771 34.0501C92.6143 42.3155 88.9703 52.7709 80.1969 56.3726L25.5621 78.8022C15.6867 82.8565 4.71116 76.1665 3.80402 65.54L0.0580229 21.6582Z" fill="url(#paint0_linear)"/>
<rect width="70" height="70" fill="black" fill-opacity="0" transform="translate(10)"/>
<path d="M77.2656 38.5521C78.7758 38.5521 80 37.3278 80 35.8175V8.20285C80 5.53759 78.6991 3.03025 76.5202 1.49546C74.3412 -0.0391903 71.5423 -0.419161 69.0332 0.478467C68.956 0.506086 68.88 0.537261 68.8055 0.571716L46.8996 10.7157C42.0768 12.9487 36.937 14.0968 31.6228 14.1277L20.9288 14.1901C14.9019 14.195 10 19.1 10 25.1286V32.2385C10 37.0892 13.2055 41.2651 17.6562 42.6703V61.6882C17.6562 63.9135 18.5712 66.0876 20.1664 67.6526C21.713 69.1701 23.7296 70 25.861 70C25.9132 70 25.9659 69.9995 26.0182 69.9984C28.1763 69.9572 30.1984 69.0857 31.712 67.5445C33.2278 66.0011 34.0625 63.9597 34.0625 61.7961V43.1674C38.6777 43.5153 43.24 44.7368 47.4001 46.7519L68.737 57.0871C68.8211 57.1279 68.9072 57.1641 68.995 57.1961C71.5073 58.1095 74.3144 57.7387 76.5036 56.2048C78.6928 54.6709 80 52.1591 80 49.4857C80 47.9754 78.7758 46.7511 77.2656 46.7511C75.7554 46.7511 74.5312 47.9754 74.5312 49.4857C74.5312 50.3901 74.1065 51.2064 73.3657 51.7254C72.657 52.2219 71.7914 52.3536 70.9737 52.0935L49.7839 41.8297C44.8852 39.4569 39.5002 38.0421 34.0625 37.6851V19.5158C39.3103 19.1912 44.3909 17.9043 49.1973 15.6789L70.973 5.59529C71.7937 5.33482 72.6622 5.46772 73.3713 5.96733C74.1085 6.48649 74.5312 7.3014 74.5312 8.20313V35.8178C74.5312 37.3278 75.7554 38.5521 77.2656 38.5521ZM28.5938 61.7961C28.5938 63.2754 27.3916 64.5018 25.9137 64.5301C25.2065 64.5434 24.5236 64.2661 23.9962 63.7485C23.4426 63.2052 23.125 62.4543 23.125 61.6881V40.4218C23.125 38.9821 22.009 37.789 20.5726 37.6932C17.7107 37.5023 15.4688 35.1063 15.4688 32.2385V25.1286C15.4688 22.1129 17.922 19.6594 20.9375 19.6594H20.9535L28.5938 19.6148V61.7961Z" fill="url(#paint1_linear)"/>
<defs>
<linearGradient id="paint0_linear" x1="14256.3" y1="3681.77" x2="14294" y2="3731.36" gradientUnits="userSpaceOnUse">
<stop stop-color="#00C2FF"/>
<stop offset="1" stop-color="#08F7CC"/>
</linearGradient>
<linearGradient id="paint1_linear" x1="49.8125" y1="2.04053e-07" x2="33.1875" y2="70" gradientUnits="userSpaceOnUse">
<stop stop-color="#0EE48B"/>
<stop offset="1" stop-color="#00BE9D"/>
</linearGradient>
</defs>
</svg>
