<svg width="70" height="67" viewBox="0 0 70 67" fill="none" xmlns="http://www.w3.org/2000/svg">
<rect width="70" height="67" fill="black" fill-opacity="0"/>
<path d="M25.263 66.9997C24.2494 66.9997 23.2363 66.6904 22.37 66.0712C22.3642 66.067 22.3577 66.0628 22.3519 66.0585L17.4989 62.529L12.6454 66.0585C12.6395 66.0628 12.6336 66.067 12.6272 66.0712C10.8867 67.3154 8.55288 67.3091 6.81933 66.0554C5.06762 64.789 4.3712 62.6543 5.04412 60.616L6.8957 55.01L2.04271 51.5413C0.300611 50.2961 -0.421436 48.0864 0.245603 46.0432C0.909972 44.008 2.79466 42.6406 4.9357 42.6406H10.9796L12.8067 37.0722C13.4721 35.0571 15.3568 33.7061 17.4984 33.7061C19.6399 33.7061 21.5246 35.0571 22.189 37.0669L24.0176 42.6406H30.0615C32.202 42.6406 34.0867 44.008 34.7516 46.0432C35.4187 48.0864 34.6966 50.2961 32.9545 51.5413L28.1015 55.01L29.9531 60.6165C30.626 62.6543 29.9296 64.789 28.1779 66.0554C27.3074 66.6851 26.2852 66.9997 25.263 66.9997ZM17.4989 56.9892C18.544 56.9892 19.5449 57.3096 20.3919 57.915C20.3978 57.9193 20.4036 57.9235 20.4095 57.9277L24.2286 60.7048L22.777 56.3086C22.1105 54.2903 22.8325 52.0981 24.5741 50.8534L28.4887 48.0552H23.6598C21.5011 48.0552 19.6164 46.7385 18.9692 44.7789L17.4989 40.2977L16.0297 44.7742C15.3813 46.7385 13.4967 48.0552 11.338 48.0552H6.50904L10.4237 50.8534C12.1652 52.0981 12.8873 54.2903 12.2208 56.3086L10.7692 60.7048L14.5877 57.9277C14.5941 57.9235 14.6 57.9193 14.6059 57.915C15.4524 57.3096 16.4532 56.9892 17.4989 56.9892ZM60.2636 66.9997C59.2505 66.9997 58.2374 66.6904 57.3706 66.0712C57.3647 66.067 57.3589 66.0628 57.353 66.0585L52.4995 62.529L47.6465 66.0585C47.6401 66.0628 47.6342 66.067 47.6283 66.0712C45.8878 67.3154 43.5535 67.3091 41.8199 66.0554C40.0687 64.789 39.3718 62.6543 40.0452 60.616L41.8968 55.01L37.0433 51.5413C35.3017 50.2961 34.5791 48.0864 35.2462 46.0432C35.9111 44.008 37.7958 42.6406 39.9363 42.6406H45.9802L47.8078 37.0722C48.4732 35.0571 50.3579 33.7061 52.4995 33.7061C54.641 33.7061 56.5257 35.0571 57.1896 37.0669L59.0182 42.6406H65.0621C66.4005 42.6406 67.6459 43.1562 68.5682 44.0926C69.5114 45.0497 70.0326 46.3705 69.9984 47.7167C69.961 49.2116 68.7001 50.3933 67.1967 50.3558C65.8499 50.3225 64.7545 49.33 64.5606 48.0552H58.6604C56.5017 48.0552 54.617 46.7385 53.9703 44.7789L52.4995 40.2977L51.0308 44.7742C50.3819 46.7385 48.4972 48.0552 46.3386 48.0552H41.5096L45.4243 50.8534C47.1658 52.0981 47.8879 54.2903 47.2214 56.3086L45.7698 60.7048L49.5888 57.9277L49.6065 57.915C50.4535 57.3091 51.4543 56.9892 52.5 56.9892C53.5452 56.9892 54.546 57.3096 55.393 57.915C55.3989 57.9193 55.4047 57.9235 55.4106 57.9277L59.2297 60.7048L58.1017 57.2895C57.6323 55.8682 58.4158 54.3395 59.8513 53.8747C61.2869 53.41 62.8308 54.1851 63.3003 55.6064L64.9542 60.616C65.6277 62.6538 64.9307 64.789 63.1796 66.0554C62.3085 66.6851 61.2863 66.9997 60.2636 66.9997ZM64.5313 47.5814V47.5851C64.5313 47.584 64.5313 47.583 64.5313 47.5814ZM42.7631 33.2936C41.7499 33.2936 40.7368 32.9843 39.8706 32.3651C39.8642 32.3609 39.8583 32.3561 39.8524 32.3519L34.9989 28.8229L30.1459 32.3519C30.14 32.3561 30.1336 32.3609 30.1278 32.3651C28.3873 33.6088 26.0529 33.6024 24.3193 32.3487C22.5682 31.0829 21.8718 28.9477 22.5447 26.9099L24.3962 21.3034L19.5433 17.8347C17.8012 16.5895 17.0791 14.3803 17.7462 12.3366C18.4105 10.3014 20.2952 8.934 22.4363 8.934H28.4802L30.3072 3.36558C30.9726 1.35046 32.8573 0 34.9989 0C37.1405 0 39.0252 1.35046 39.689 3.36083L41.5182 8.934H47.5621C49.7026 8.934 51.5873 10.3019 52.2522 12.3366C52.9192 14.3797 52.1972 16.5895 50.4551 17.8347L45.6021 21.3034L47.4537 26.9099C48.1266 28.9477 47.4296 31.0829 45.6785 32.3487C44.808 32.9785 43.7858 33.2936 42.7631 33.2936ZM34.9989 23.2831C36.0446 23.2831 37.0449 23.603 37.8919 24.2084C37.8983 24.2126 37.9042 24.2169 37.9101 24.2216L41.7291 26.9987L40.277 22.602C39.6105 20.5843 40.3331 18.3915 42.0746 17.1473L45.9893 14.3491H41.1598C39.0017 14.3491 37.117 13.0325 36.4697 11.0723L34.9989 6.59105L33.5303 11.0681C32.8819 13.0325 30.9967 14.3491 28.8385 14.3491H24.0096L27.9242 17.1473C29.6653 18.3915 30.3878 20.5843 29.7213 22.602L28.2692 26.9987L32.0883 24.2216C32.0942 24.2169 32.1 24.2126 32.1064 24.2084C32.9529 23.603 33.9538 23.2831 34.9989 23.2831ZM47.5621 14.3491H47.5632H47.5621Z" fill="url(#paint0_linear)"/>
<defs>
<linearGradient id="paint0_linear" x1="39.8125" y1="1.95308e-07" x2="24.5134" y2="67.3014" gradientUnits="userSpaceOnUse">
<stop stop-color="#0EE48B"/>
<stop offset="1" stop-color="#00BE9D"/>
</linearGradient>
</defs>
</svg>
